<svg xmlns="http://www.w3.org/2000/svg" viewBox="0 0 240 220" role="img" aria-label="Kalem">
  <g fill="#1CB5C9">
    <!-- sol kanat -->
    <g>
      <path d="M112 96 C70 88 38 64 20 28 C52 40 78 58 98 82 Z"/>
      <path d="M110 104 C74 102 46 88 26 62 C54 70 82 84 104 98 Z" opacity="0.92"/>
      <path d="M108 112 C80 114 58 106 42 90 C64 94 88 102 104 108 Z" opacity="0.85"/>
    </g>
    <!-- sağ kanat (ayna) -->
    <g transform="translate(240,0) scale(-1,1)">
      <path d="M112 96 C70 88 38 64 20 28 C52 40 78 58 98 82 Z"/>
      <path d="M110 104 C74 102 46 88 26 62 C54 70 82 84 104 98 Z" opacity="0.92"/>
      <path d="M108 112 C80 114 58 106 42 90 C64 94 88 102 104 108 Z" opacity="0.85"/>
    </g>
    <!-- baş -->
    <circle cx="120" cy="66" r="10"/>
    <path d="M120 56 C126 48 134 44 142 44 C136 50 130 56 126 62 Z"/>
    <!-- gövde: kalem ucu -->
    <path d="M120 78 L138 96 C136 122 128 144 120 158 C112 144 104 122 102 96 Z"/>
    <circle cx="120" cy="104" r="5" fill="#fff"/>
    <path d="M120 109 L120 150" stroke="#fff" stroke-width="3" stroke-linecap="round" fill="none"/>
  </g>
  <text x="120" y="204" text-anchor="middle" fill="#1CB5C9"
        font-family="'Segoe UI', 'Helvetica Neue', Arial, sans-serif"
        font-size="52" font-weight="700" letter-spacing="4">kalem</text>
</svg>
